<svg xmlns='http://www.w3.org/2000/svg' style='display: none;'>
  <symbol id='rocket-02'>
    <path
      d="M12 15L9 12M12 15C13.3968 14.4685 14.7369 13.7985 16 13M12 15V20C12 20 15.03 19.45 16 18C17.08 16.38 16 13 16 13M9 12C9.53214 10.6192 10.2022 9.29582 11 8.04976C12.1652 6.18675 13.7876 4.65281 15.713 3.59385C17.6384 2.53489 19.8027 1.98613 22 2C22 4.72 21.22 9.5 16 13M9 12H4C4 12 4.55 8.97 6 8C7.62 6.92 11 8 11 8M4.5 16.5C3 17.76 2.5 21.5 2.5 21.5C2.5 21.5 6.24 21 7.5 19.5C8.21 18.66 8.2 17.37 7.41 16.59C7.02131 16.2188 6.50929 16.0044 5.97223 15.9878C5.43517 15.9712 4.90312 16.153 4.5 16.5Z" />
  </symbol>
  <symbol id='download-02'>
    <path d="M21 21H3M18 11L12 17M12 17L6 11M12 17V3" />
  </symbol>
  <symbol id='target-04'>
    <path
      d='M16 8V5L19 2L20 4L22 5L19 8H16ZM16 8L12 11.9999M22 12C22 17.5228 17.5228 22 12 22C6.47715 22 2 17.5228 2 12C2 6.47715 6.47715 2 12 2M17 12C17 14.7614 14.7614 17 12 17C9.23858 17 7 14.7614 7 12C7 9.23858 9.23858 7 12 7' />
  </symbol>
  <symbol id='book-closed'>
    <path
      d='M20 19V16H7C5.34315 16 4 17.3431 4 19M8.8 22H16.8C17.9201 22 18.4802 22 18.908 21.782C19.2843 21.5903 19.5903 21.2843 19.782 20.908C20 20.4802 20 19.9201 20 18.8V5.2C20 4.07989 20 3.51984 19.782 3.09202C19.5903 2.71569 19.2843 2.40973 18.908 2.21799C18.4802 2 17.9201 2 16.8 2H8.8C7.11984 2 6.27976 2 5.63803 2.32698C5.07354 2.6146 4.6146 3.07354 4.32698 3.63803C4 4.27976 4 5.11984 4 6.8V17.2C4 18.8802 4 19.7202 4.32698 20.362C4.6146 20.9265 5.07354 21.3854 5.63803 21.673C6.27976 22 7.11984 22 8.8 22Z' />
  </symbol>
  <symbol id='lightbulb-02'>
    <path
      d="M10 17.6586V20C10 21.1046 10.8954 22 12 22C13.1046 22 14 21.1046 14 20V17.6586M12 2V3M3 12H2M5.5 5.5L4.8999 4.8999M18.5 5.5L19.1002 4.8999M22 12H21M18 12C18 15.3137 15.3137 18 12 18C8.68629 18 6 15.3137 6 12C6 8.68629 8.68629 6 12 6C15.3137 6 18 8.68629 18 12Z" />
  </symbol>
  <symbol id='clipboard-check'>
    <path
      d='M16 4C16.93 4 17.395 4 17.7765 4.10222C18.8117 4.37962 19.6204 5.18827 19.8978 6.22354C20 6.60504 20 7.07003 20 8V17.2C20 18.8802 20 19.7202 19.673 20.362C19.3854 20.9265 18.9265 21.3854 18.362 21.673C17.7202 22 16.8802 22 15.2 22H8.8C7.11984 22 6.27976 22 5.63803 21.673C5.07354 21.3854 4.6146 20.9265 4.32698 20.362C4 19.7202 4 18.8802 4 17.2V8C4 7.07003 4 6.60504 4.10222 6.22354C4.37962 5.18827 5.18827 4.37962 6.22354 4.10222C6.60504 4 7.07003 4 8 4M9 15L11 17L15.5 12.5M9.6 6H14.4C14.9601 6 15.2401 6 15.454 5.89101C15.6422 5.79513 15.7951 5.64215 15.891 5.45399C16 5.24008 16 4.96005 16 4.4V3.6C16 3.03995 16 2.75992 15.891 2.54601C15.7951 2.35785 15.6422 2.20487 15.454 2.10899C15.2401 2 14.9601 2 14.4 2H9.6C9.03995 2 8.75992 2 8.54601 2.10899C8.35785 2.20487 8.20487 2.35785 8.10899 2.54601C8 2.75992 8 3.03995 8 3.6V4.4C8 4.96005 8 5.24008 8.10899 5.45399C8.20487 5.64215 8.35785 5.79513 8.54601 5.89101C8.75992 6 9.03995 6 9.6 6Z' />
  </symbol>
  <symbol id='rocket-02'>
    <path
      d='M12 14.9998L9 11.9998M12 14.9998C13.3968 14.4685 14.7369 13.7985 16 12.9998M12 14.9998V19.9998C12 19.9998 15.03 19.4498 16 17.9998C17.08 16.3798 16 12.9998 16 12.9998M9 11.9998C9.53214 10.6192 10.2022 9.29582 11 8.04976C12.1652 6.18675 13.7876 4.65281 15.713 3.59385C17.6384 2.53489 19.8027 1.98613 22 1.99976C22 4.71976 21.22 9.49976 16 12.9998M9 11.9998H4C4 11.9998 4.55 8.96976 6 7.99976C7.62 6.91976 11 7.99976 11 7.99976M4.5 16.4998C3 17.7598 2.5 21.4998 2.5 21.4998C2.5 21.4998 6.24 20.9998 7.5 19.4998C8.21 18.6598 8.2 17.3698 7.41 16.5898C7.02131 16.2188 6.50929 16.0044 5.97223 15.9878C5.43516 15.9712 4.91088 16.1535 4.5 16.4998Z' />
  </symbol>
  <symbol id='alert-circle'>
    <path
      d='M12 8V12M12 16H12.01M22 12C22 17.5228 17.5228 22 12 22C6.47715 22 2 17.5228 2 12C2 6.47715 6.47715 2 12 2C17.5228 2 22 6.47715 22 12Z' />
  </symbol>
  <symbol id='x-close'>
    <path d='M18 6L6 18M6 6L18 18' />
  </symbol>
</svg>