<svg xmlns='http://www.w3.org/2000/svg' style='display: none;'>
  <symbol id='rocket-02'>
    <path
      d="M12 15L9 12M12 15C13.3968 14.4685 14.7369 13.7985 16 13M12 15V20C12 20 15.03 19.45 16 18C17.08 16.38 16 13 16 13M9 12C9.53214 10.6192 10.2022 9.29582 11 8.04976C12.1652 6.18675 13.7876 4.65281 15.713 3.59385C17.6384 2.53489 19.8027 1.98613 22 2C22 4.72 21.22 9.5 16 13M9 12H4C4 12 4.55 8.97 6 8C7.62 6.92 11 8 11 8M4.5 16.5C3 17.76 2.5 21.5 2.5 21.5C2.5 21.5 6.24 21 7.5 19.5C8.21 18.66 8.2 17.37 7.41 16.59C7.02131 16.2188 6.50929 16.0044 5.97223 15.9878C5.43517 15.9712 4.90312 16.153 4.5 16.5Z" />
  </symbol>
  <symbol id='download-02'>
    <path d="M21 21H3M18 11L12 17M12 17L6 11M12 17V3" />
  </symbol>
  <symbol id='target-04'>
    <path
      d='M16 8V5L19 2L20 4L22 5L19 8H16ZM16 8L12 11.9999M22 12C22 17.5228 17.5228 22 12 22C6.47715 22 2 17.5228 2 12C2 6.47715 6.47715 2 12 2M17 12C17 14.7614 14.7614 17 12 17C9.23858 17 7 14.7614 7 12C7 9.23858 9.23858 7 12 7' />
  </symbol>
  <symbol id='book-closed'>
    <path
      d='M20 19V16H7C5.34315 16 4 17.3431 4 19M8.8 22H16.8C17.9201 22 18.4802 22 18.908 21.782C19.2843 21.5903 19.5903 21.2843 19.782 20.908C20 20.4802 20 19.9201 20 18.8V5.2C20 4.07989 20 3.51984 19.782 3.09202C19.5903 2.71569 19.2843 2.40973 18.908 2.21799C18.4802 2 17.9201 2 16.8 2H8.8C7.11984 2 6.27976 2 5.63803 2.32698C5.07354 2.6146 4.6146 3.07354 4.32698 3.63803C4 4.27976 4 5.11984 4 6.8V17.2C4 18.8802 4 19.7202 4.32698 20.362C4.6146 20.9265 5.07354 21.3854 5.63803 21.673C6.27976 22 7.11984 22 8.8 22Z' />
  </symbol>
  <symbol id='lightbulb-02'>
    <path
      d="M10 17.6586V20C10 21.1046 10.8954 22 12 22C13.1046 22 14 21.1046 14 20V17.6586M12 2V3M3 12H2M5.5 5.5L4.8999 4.8999M18.5 5.5L19.1002 4.8999M22 12H21M18 12C18 15.3137 15.3137 18 12 18C8.68629 18 6 15.3137 6 12C6 8.68629 8.68629 6 12 6C15.3137 6 18 8.68629 18 12Z" />
  </symbol>
  <symbol id='clipboard-check'>
    <path
      d='M16 4C16.93 4 17.395 4 17.7765 4.10222C18.8117 4.37962 19.6204 5.18827 19.8978 6.22354C20 6.60504 20 7.07003 20 8V17.2C20 18.8802 20 19.7202 19.673 20.362C19.3854 20.9265 18.9265 21.3854 18.362 21.673C17.7202 22 16.8802 22 15.2 22H8.8C7.11984 22 6.27976 22 5.63803 21.673C5.07354 21.3854 4.6146 20.9265 4.32698 20.362C4 19.7202 4 18.8802 4 17.2V8C4 7.07003 4 6.60504 4.10222 6.22354C4.37962 5.18827 5.18827 4.37962 6.22354 4.10222C6.60504 4 7.07003 4 8 4M9 15L11 17L15.5 12.5M9.6 6H14.4C14.9601 6 15.2401 6 15.454 5.89101C15.6422 5.79513 15.7951 5.64215 15.891 5.45399C16 5.24008 16 4.96005 16 4.4V3.6C16 3.03995 16 2.75992 15.891 2.54601C15.7951 2.35785 15.6422 2.20487 15.454 2.10899C15.2401 2 14.9601 2 14.4 2H9.6C9.03995 2 8.75992 2 8.54601 2.10899C8.35785 2.20487 8.20487 2.35785 8.10899 2.54601C8 2.75992 8 3.03995 8 3.6V4.4C8 4.96005 8 5.24008 8.10899 5.45399C8.20487 5.64215 8.35785 5.79513 8.54601 5.89101C8.75992 6 9.03995 6 9.6 6Z' />
  </symbol>
  <symbol id='rocket-02'>
    <path
      d='M12 14.9998L9 11.9998M12 14.9998C13.3968 14.4685 14.7369 13.7985 16 12.9998M12 14.9998V19.9998C12 19.9998 15.03 19.4498 16 17.9998C17.08 16.3798 16 12.9998 16 12.9998M9 11.9998C9.53214 10.6192 10.2022 9.29582 11 8.04976C12.1652 6.18675 13.7876 4.65281 15.713 3.59385C17.6384 2.53489 19.8027 1.98613 22 1.99976C22 4.71976 21.22 9.49976 16 12.9998M9 11.9998H4C4 11.9998 4.55 8.96976 6 7.99976C7.62 6.91976 11 7.99976 11 7.99976M4.5 16.4998C3 17.7598 2.5 21.4998 2.5 21.4998C2.5 21.4998 6.24 20.9998 7.5 19.4998C8.21 18.6598 8.2 17.3698 7.41 16.5898C7.02131 16.2188 6.50929 16.0044 5.97223 15.9878C5.43516 15.9712 4.91088 16.1535 4.5 16.4998Z' />
  </symbol>
  <symbol id='alert-circle'>
    <path
      d='M12 8V12M12 16H12.01M22 12C22 17.5228 17.5228 22 12 22C6.47715 22 2 17.5228 2 12C2 6.47715 6.47715 2 12 2C17.5228 2 22 6.47715 22 12Z' />
  </symbol>
  <symbol id='x-close'>
    <path d='M18 6L6 18M6 6L18 18' />
  </symbol>
   <symbol id='trash-01'>
    <path
      d="M16 6V5.2C16 4.0799 16 3.51984 15.782 3.09202C15.5903 2.71569 15.2843 2.40973 14.908 2.21799C14.4802 2 13.9201 2 12.8 2H11.2C10.0799 2 9.51984 2 9.09202 2.21799C8.71569 2.40973 8.40973 2.71569 8.21799 3.09202C8 3.51984 8 4.0799 8 5.2V6M10 11.5V16.5M14 11.5V16.5M3 6H21M19 6V17.2C19 18.8802 19 19.7202 18.673 20.362C18.3854 20.9265 17.9265 21.3854 17.362 21.673C16.7202 22 15.8802 22 14.2 22H9.8C8.11984 22 7.27976 22 6.63803 21.673C6.07354 21.3854 5.6146 20.9265 5.32698 20.362C5 19.7202 5 18.8802 5 17.2V6" />
  </symbol>
  <symbol id='link-external-02'>
      <path
      d='M21 9.00001L21 3.00001M21 3.00001H15M21 3.00001L12 12M10 3H7.8C6.11984 3 5.27976 3 4.63803 3.32698C4.07354 3.6146 3.6146 4.07354 3.32698 4.63803C3 5.27976 3 6.11984 3 7.8V16.2C3 17.8802 3 18.7202 3.32698 19.362C3.6146 19.9265 4.07354 20.3854 4.63803 20.673C5.27976 21 6.11984 21 7.8 21H16.2C17.8802 21 18.7202 21 19.362 20.673C19.9265 20.3854 20.3854 19.9265 20.673 19.362C21 18.7202 21 17.8802 21 16.2V14'
    />
    </symbol>
    <symbol id='bold-01'>
     <path d='M6 12H14C16.2091 12 18 10.2091 18 8C18 5.79086 16.2091 4 14 4H6V12ZM6 12H15C17.2091 12 19 13.7909 19 16C19 18.2091 17.2091 20 15 20H6V12Z'/>
     </symbol>
     <symbol id='link-01'>
     <path d='M12.7076 18.3639L11.2933 19.7781C9.34072 21.7308 6.1749 21.7308 4.22228 19.7781C2.26966 17.8255 2.26966 14.6597 4.22228 12.7071L5.63649 11.2929M18.3644 12.7071L19.7786 11.2929C21.7312 9.34024 21.7312 6.17441 19.7786 4.22179C17.826 2.26917 14.6602 2.26917 12.7076 4.22179L11.2933 5.636M8.50045 15.4999L15.5005 8.49994'/>
     </symbol>
     <symbol id='italic-01'>
     <path d='M19 4H10M14 20H5M15 4L9 20'/>
     </symbol>
     <symbol id='block-quote'>
         <path d='M22 11L7 11M18 4L7 4M18 18H7M2 2V20'/>
    </symbol> 
    <symbol id='list-bulleted'>
    <path  d='M21 12L9 12M21 6L9 6M21 18L9 18M5 12C5 12.5523 4.55228 13 4 13C3.44772 13 3 12.5523 3 12C3 11.4477 3.44772 11 4 11C4.55228 11 5 11.4477 5 12ZM5 6C5 6.55228 4.55228 7 4 7C3.44772 7 3 6.55228 3 6C3 5.44772 3.44772 5 4 5C4.55228 5 5 5.44772 5 6ZM5 18C5 18.5523 4.55228 19 4 19C3.44772 19 3 18.5523 3 18C3 17.4477 3.44772 17 4 17C4.55228 17 5 17.4477 5 18Z'/>
    </symbol>
    <symbol id='list-numbered'>
    <path   d='M5.55 8V4H4.44134L3.35 4.60156V5.52344L4.32008 5H4.34606V8H5.55ZM3.07444 13.2293V14H6V13.1445H4.51117V13.1214L4.86849 12.8131C5.15881 12.5626 5.38275 12.3468 5.54032 12.1657C5.69789 11.9846 5.80707 11.8195 5.86787 11.6705C5.92866 11.5202 5.95906 11.3693 5.95906 11.2177C5.95906 10.9724 5.89764 10.7585 5.77481 10.5761C5.65323 10.3937 5.48015 10.2524 5.25558 10.1522C5.03226 10.0507 4.76799 10 4.46278 10C4.16749 10 3.91005 10.0539 3.69045 10.1618C3.47084 10.2697 3.30087 10.4239 3.18052 10.6243C3.06017 10.8247 3 11.0636 3 11.341H3.98263C3.98263 11.2306 4.00248 11.1368 4.04218 11.0597C4.08189 10.9827 4.13772 10.9242 4.20968 10.8844C4.28288 10.8446 4.36725 10.8247 4.46278 10.8247C4.55831 10.8247 4.64268 10.8446 4.71588 10.8844C4.78908 10.9229 4.84615 10.9782 4.8871 11.0501C4.92928 11.122 4.95037 11.2087 4.95037 11.3102C4.95037 11.4027 4.93176 11.4868 4.89454 11.5626C4.85856 11.6384 4.80645 11.7123 4.73821 11.7842C4.67122 11.8548 4.59057 11.9306 4.49628 12.0116L3.07444 13.2293ZM4.48216 20.1001C4.19475 20.1001 3.93941 20.0475 3.71614 19.9423C3.49405 19.8358 3.31947 19.6895 3.1924 19.5031C3.06532 19.3168 3.00119 19.1026 3 18.8606H3.99761C3.99879 18.9353 4.02017 19.0025 4.06174 19.0621C4.10449 19.1204 4.16269 19.166 4.23632 19.199C4.30995 19.2319 4.39427 19.2484 4.48928 19.2484C4.58073 19.2484 4.66149 19.2313 4.73156 19.1971C4.80163 19.1616 4.85626 19.1128 4.89545 19.0507C4.93464 18.9886 4.95365 18.9176 4.95246 18.8377C4.95365 18.7592 4.93108 18.6895 4.88476 18.6286C4.83963 18.5678 4.7761 18.5202 4.69415 18.486C4.6122 18.4518 4.51779 18.4347 4.4109 18.4347H4.04036V17.7047H4.4109C4.50947 17.7047 4.59617 17.6876 4.67099 17.6533C4.747 17.6191 4.80579 17.5716 4.84735 17.5107C4.89011 17.4499 4.91089 17.3802 4.9097 17.3016C4.91089 17.2256 4.89367 17.1584 4.85804 17.1001C4.82241 17.0418 4.77253 16.9962 4.7084 16.9632C4.64546 16.9303 4.57242 16.9138 4.48928 16.9138C4.39902 16.9138 4.31827 16.9309 4.24701 16.9651C4.17694 16.9993 4.12171 17.0469 4.08133 17.1077C4.04095 17.1685 4.02017 17.2382 4.01898 17.3168H3.07126C3.07245 17.0786 3.13361 16.8682 3.25475 16.6856C3.37707 16.5031 3.54453 16.3599 3.75711 16.256C3.9697 16.1521 4.21375 16.1001 4.48928 16.1001C4.75887 16.1001 4.99699 16.1489 5.20364 16.2465C5.41148 16.3441 5.57359 16.4784 5.68997 16.6495C5.80755 16.8194 5.86574 17.0139 5.86455 17.2332C5.86693 17.4512 5.79686 17.6299 5.65434 17.7693C5.51302 17.9087 5.33369 17.9911 5.11635 18.0164V18.0469C5.41088 18.0811 5.63237 18.1774 5.78083 18.3358C5.92928 18.493 6.00232 18.6907 5.99994 18.929C6.00113 19.1571 5.937 19.3593 5.80755 19.5355C5.67928 19.7116 5.50055 19.8498 5.27134 19.9499C5.04331 20.05 4.78025 20.1001 4.48216 20.1001ZM9 5C8.44772 5 8 5.44772 8 6C8 6.55228 8.44772 7 9 7L21 7C21.5523 7 22 6.55229 22 6C22 5.44772 21.5523 5 21 5L9 5ZM9 11C8.44772 11 8 11.4477 8 12C8 12.5523 8.44772 13 9 13L21 13C21.5523 13 22 12.5523 22 12C22 11.4477 21.5523 11 21 11L9 11ZM9 17C8.44772 17 8 17.4477 8 18C8 18.5523 8.44772 19 9 19L21 19C21.5523 19 22 18.5523 22 18C22 17.4477 21.5523 17 21 17L9 17Z'
    />
    </symbol>
    <symbol id='strikethrough-01'>
    <path d='M6 16C6 18.2091 7.79086 20 10 20H14C16.2091 20 18 18.2091 18 16C18 13.7909 16.2091 12 14 12M18 8C18 5.79086 16.2091 4 14 4H10C7.79086 4 6 5.79086 6 8M3 12H21'
    />
    </symbol>
     <symbol id='arrow-block-down'>
    <path
      d='M9 3.8C9 3.51997 9 3.37996 9.0545 3.273C9.10243 3.17892 9.17892 3.10243 9.273 3.0545C9.37996 3 9.51997 3 9.8 3H14.2C14.48 3 14.62 3 14.727 3.0545C14.8211 3.10243 14.8976 3.17892 14.9455 3.273C15 3.37996 15 3.51997 15 3.8V14H19L12 21L5 14H9V3.8Z'
     />
  </symbol>
    <symbol id='arrow-block-up'>
    <path
      d='M9.8 21C9.51997 21 9.37996 21 9.273 20.9455C9.17892 20.8976 9.10243 20.8211 9.0545 20.727C9 20.62 9 20.48 9 20.2V10H5L12 3L19 10H15V20.2C15 20.48 15 20.62 14.9455 20.727C14.8976 20.8211 14.8211 20.8976 14.727 20.9455C14.62 21 14.48 21 14.2 21H9.8Z'
      stroke='currentColor' stroke-width='2' stroke-linecap='round' stroke-linejoin='round' />
  </symbol>
    <symbol id='expand-01'>
    <path d='M14 10L21 3M21 3H15M21 3V9M10 14L3 21M3 21H9M3 21L3 15' />
  </symbol>
  <symbol id='collapse-01'>
    <path d="M3 21L10 14M10 14L4 14M10 14L10 20M21 3L14 10M14 10L20 10M14 10L14 4" />
  </symbol>
  <symbol id='building-06'>
  <path  d='M11 11H6.2C5.07989 11 4.51984 11 4.09202 11.218C3.71569 11.4097 3.40973 11.7157 3.21799 12.092C3 12.5198 3 13.0799 3 14.2V21M21 21V6.2C21 5.0799 21 4.51984 20.782 4.09202C20.5903 3.71569 20.2843 3.40973 19.908 3.21799C19.4802 3 18.9201 3 17.8 3H14.2C13.0799 3 12.5198 3 12.092 3.21799C11.7157 3.40973 11.4097 3.71569 11.218 4.09202C11 4.51984 11 5.0799 11 6.2V21M22 21H2M14.5 7H17.5M14.5 11H17.5M14.5 15H17.5'/>
  </symbol>
     <symbol id='magnet'>
    <path d="M20.435 16.5C20.5161 16.1932 20.5899 15.8823 20.6533 15.5714C20.9089 14.3174 21 12.9009 21 11.5238C21 6.28571 17.4 2 12 2C6.6 2 3 6.28571 3 11.5238C3 12.9009 3.09111 14.3174 3.34673 15.5714C3.4101 15.8823 3.48392 16.1932 3.56497 16.5M20.435 16.5C19.8085 18.8719 18.75 21 18.75 21L13.8 21C14.2102 19.5567 14.7789 18.0388 15.2419 16.5M20.435 16.5L15.2419 16.5M15.2419 16.5C15.697 14.9873 16.05 13.4545 16.05 11.9524C16.05 8.78571 13.8 7.42857 12 7.42857C10.2 7.42857 7.95 8.78571 7.95 11.9524C7.95 13.424 8.27525 14.9742 8.71503 16.5M8.71503 16.5C9.16536 18.0625 9.73579 19.5994 10.2 21L5.25 21C5.25 21 4.19153 18.8719 3.56497 16.5M8.71503 16.5L3.56497 16.5"/>
   </symbol>
     <symbol id='radar'>
    <path
      d='M22 12c0 5.523-4.477 10-10 10a9.954 9.954 0 0 1-5.251-1.488M18 12A6 6 0 1 1 6.749 9.095m6.574 1.405a2 2 0 1 0-2.646 3 2 2 0 0 0 2.646-3Zm0 0 2.119-3.415m0 0A5.972 5.972 0 0 0 12 6a5.972 5.972 0 0 0-3.001.803m6.443.282 2.127-3.392A9.954 9.954 0 0 0 12 2C6.477 2 2 6.477 2 12c0 2.394.841 4.592 2.244 6.313' />
  </symbol>
    <symbol id='briefcase-02'>
    <path
      d='M8 21V7C8 6.07003 8 5.60504 8.10222 5.22354C8.37962 4.18827 9.18827 3.37962 10.2235 3.10222C10.605 3 11.07 3 12 3C12.93 3 13.395 3 13.7765 3.10222C14.8117 3.37962 15.6204 4.18827 15.8978 5.22354C16 5.60504 16 6.07003 16 7V21M5.2 21H18.8C19.9201 21 20.4802 21 20.908 20.782C21.2843 20.5903 21.5903 20.2843 21.782 19.908C22 19.4802 22 18.9201 22 17.8V10.2C22 9.07989 22 8.51984 21.782 8.09202C21.5903 7.71569 21.2843 7.40973 20.908 7.21799C20.4802 7 19.9201 7 18.8 7H5.2C4.07989 7 3.51984 7 3.09202 7.21799C2.71569 7.40973 2.40973 7.71569 2.21799 8.09202C2 8.51984 2 9.07989 2 10.2V17.8C2 18.9201 2 19.4802 2.21799 19.908C2.40973 20.2843 2.71569 20.5903 3.09202 20.782C3.51984 21 4.0799 21 5.2 21Z' />
  </symbol>
</svg>