<svg xmlns='http://www.w3.org/2000/svg' style='display: none;'>
  <symbol id='rocket-02'>
    <path
      d="M12 15L9 12M12 15C13.3968 14.4685 14.7369 13.7985 16 13M12 15V20C12 20 15.03 19.45 16 18C17.08 16.38 16 13 16 13M9 12C9.53214 10.6192 10.2022 9.29582 11 8.04976C12.1652 6.18675 13.7876 4.65281 15.713 3.59385C17.6384 2.53489 19.8027 1.98613 22 2C22 4.72 21.22 9.5 16 13M9 12H4C4 12 4.55 8.97 6 8C7.62 6.92 11 8 11 8M4.5 16.5C3 17.76 2.5 21.5 2.5 21.5C2.5 21.5 6.24 21 7.5 19.5C8.21 18.66 8.2 17.37 7.41 16.59C7.02131 16.2188 6.50929 16.0044 5.97223 15.9878C5.43517 15.9712 4.90312 16.153 4.5 16.5Z" />
  </symbol>
  <symbol id='download-02'>
    <path d="M21 21H3M18 11L12 17M12 17L6 11M12 17V3" />
  </symbol>
  <symbol id='target-04'>
    <path
      d='M16 8V5L19 2L20 4L22 5L19 8H16ZM16 8L12 11.9999M22 12C22 17.5228 17.5228 22 12 22C6.47715 22 2 17.5228 2 12C2 6.47715 6.47715 2 12 2M17 12C17 14.7614 14.7614 17 12 17C9.23858 17 7 14.7614 7 12C7 9.23858 9.23858 7 12 7' />
  </symbol>
  <symbol id='book-closed'>
    <path
      d='M20 19V16H7C5.34315 16 4 17.3431 4 19M8.8 22H16.8C17.9201 22 18.4802 22 18.908 21.782C19.2843 21.5903 19.5903 21.2843 19.782 20.908C20 20.4802 20 19.9201 20 18.8V5.2C20 4.07989 20 3.51984 19.782 3.09202C19.5903 2.71569 19.2843 2.40973 18.908 2.21799C18.4802 2 17.9201 2 16.8 2H8.8C7.11984 2 6.27976 2 5.63803 2.32698C5.07354 2.6146 4.6146 3.07354 4.32698 3.63803C4 4.27976 4 5.11984 4 6.8V17.2C4 18.8802 4 19.7202 4.32698 20.362C4.6146 20.9265 5.07354 21.3854 5.63803 21.673C6.27976 22 7.11984 22 8.8 22Z' />
  </symbol>
  <symbol id='lightbulb-02'>
    <path
      d="M10 17.6586V20C10 21.1046 10.8954 22 12 22C13.1046 22 14 21.1046 14 20V17.6586M12 2V3M3 12H2M5.5 5.5L4.8999 4.8999M18.5 5.5L19.1002 4.8999M22 12H21M18 12C18 15.3137 15.3137 18 12 18C8.68629 18 6 15.3137 6 12C6 8.68629 8.68629 6 12 6C15.3137 6 18 8.68629 18 12Z" />
  </symbol>
  <symbol id='clipboard-check'>
    <path
      d='M16 4C16.93 4 17.395 4 17.7765 4.10222C18.8117 4.37962 19.6204 5.18827 19.8978 6.22354C20 6.60504 20 7.07003 20 8V17.2C20 18.8802 20 19.7202 19.673 20.362C19.3854 20.9265 18.9265 21.3854 18.362 21.673C17.7202 22 16.8802 22 15.2 22H8.8C7.11984 22 6.27976 22 5.63803 21.673C5.07354 21.3854 4.6146 20.9265 4.32698 20.362C4 19.7202 4 18.8802 4 17.2V8C4 7.07003 4 6.60504 4.10222 6.22354C4.37962 5.18827 5.18827 4.37962 6.22354 4.10222C6.60504 4 7.07003 4 8 4M9 15L11 17L15.5 12.5M9.6 6H14.4C14.9601 6 15.2401 6 15.454 5.89101C15.6422 5.79513 15.7951 5.64215 15.891 5.45399C16 5.24008 16 4.96005 16 4.4V3.6C16 3.03995 16 2.75992 15.891 2.54601C15.7951 2.35785 15.6422 2.20487 15.454 2.10899C15.2401 2 14.9601 2 14.4 2H9.6C9.03995 2 8.75992 2 8.54601 2.10899C8.35785 2.20487 8.20487 2.35785 8.10899 2.54601C8 2.75992 8 3.03995 8 3.6V4.4C8 4.96005 8 5.24008 8.10899 5.45399C8.20487 5.64215 8.35785 5.79513 8.54601 5.89101C8.75992 6 9.03995 6 9.6 6Z' />
  </symbol>
  <symbol id='rocket-02'>
    <path
      d='M12 14.9998L9 11.9998M12 14.9998C13.3968 14.4685 14.7369 13.7985 16 12.9998M12 14.9998V19.9998C12 19.9998 15.03 19.4498 16 17.9998C17.08 16.3798 16 12.9998 16 12.9998M9 11.9998C9.53214 10.6192 10.2022 9.29582 11 8.04976C12.1652 6.18675 13.7876 4.65281 15.713 3.59385C17.6384 2.53489 19.8027 1.98613 22 1.99976C22 4.71976 21.22 9.49976 16 12.9998M9 11.9998H4C4 11.9998 4.55 8.96976 6 7.99976C7.62 6.91976 11 7.99976 11 7.99976M4.5 16.4998C3 17.7598 2.5 21.4998 2.5 21.4998C2.5 21.4998 6.24 20.9998 7.5 19.4998C8.21 18.6598 8.2 17.3698 7.41 16.5898C7.02131 16.2188 6.50929 16.0044 5.97223 15.9878C5.43516 15.9712 4.91088 16.1535 4.5 16.4998Z' />
  </symbol>
  <symbol id='alert-circle'>
    <path
      d='M12 8V12M12 16H12.01M22 12C22 17.5228 17.5228 22 12 22C6.47715 22 2 17.5228 2 12C2 6.47715 6.47715 2 12 2C17.5228 2 22 6.47715 22 12Z' />
  </symbol>
  <symbol id='x-close'>
    <path d='M18 6L6 18M6 6L18 18' />
  </symbol>
  <symbol id='trash-01'>
    <path
      d="M16 6V5.2C16 4.0799 16 3.51984 15.782 3.09202C15.5903 2.71569 15.2843 2.40973 14.908 2.21799C14.4802 2 13.9201 2 12.8 2H11.2C10.0799 2 9.51984 2 9.09202 2.21799C8.71569 2.40973 8.40973 2.71569 8.21799 3.09202C8 3.51984 8 4.0799 8 5.2V6M10 11.5V16.5M14 11.5V16.5M3 6H21M19 6V17.2C19 18.8802 19 19.7202 18.673 20.362C18.3854 20.9265 17.9265 21.3854 17.362 21.673C16.7202 22 15.8802 22 14.2 22H9.8C8.11984 22 7.27976 22 6.63803 21.673C6.07354 21.3854 5.6146 20.9265 5.32698 20.362C5 19.7202 5 18.8802 5 17.2V6" />
  </symbol>
  <symbol id='link-external-02'>
    <path
      d='M21 9.00001L21 3.00001M21 3.00001H15M21 3.00001L12 12M10 3H7.8C6.11984 3 5.27976 3 4.63803 3.32698C4.07354 3.6146 3.6146 4.07354 3.32698 4.63803C3 5.27976 3 6.11984 3 7.8V16.2C3 17.8802 3 18.7202 3.32698 19.362C3.6146 19.9265 4.07354 20.3854 4.63803 20.673C5.27976 21 6.11984 21 7.8 21H16.2C17.8802 21 18.7202 21 19.362 20.673C19.9265 20.3854 20.3854 19.9265 20.673 19.362C21 18.7202 21 17.8802 21 16.2V14' />
  </symbol>
  <symbol id='bold-01'>
    <path
      d='M6 12H14C16.2091 12 18 10.2091 18 8C18 5.79086 16.2091 4 14 4H6V12ZM6 12H15C17.2091 12 19 13.7909 19 16C19 18.2091 17.2091 20 15 20H6V12Z' />
  </symbol>
  <symbol id='link-01'>
    <path
      d='M12.7076 18.3639L11.2933 19.7781C9.34072 21.7308 6.1749 21.7308 4.22228 19.7781C2.26966 17.8255 2.26966 14.6597 4.22228 12.7071L5.63649 11.2929M18.3644 12.7071L19.7786 11.2929C21.7312 9.34024 21.7312 6.17441 19.7786 4.22179C17.826 2.26917 14.6602 2.26917 12.7076 4.22179L11.2933 5.636M8.50045 15.4999L15.5005 8.49994' />
  </symbol>
  <symbol id='italic-01'>
    <path d='M19 4H10M14 20H5M15 4L9 20' />
  </symbol>
  <symbol id='block-quote'>
    <path d='M22 11L7 11M18 4L7 4M18 18H7M2 2V20' />
  </symbol>
  <symbol id='list-bulleted'>
    <path
      d='M21 12L9 12M21 6L9 6M21 18L9 18M5 12C5 12.5523 4.55228 13 4 13C3.44772 13 3 12.5523 3 12C3 11.4477 3.44772 11 4 11C4.55228 11 5 11.4477 5 12ZM5 6C5 6.55228 4.55228 7 4 7C3.44772 7 3 6.55228 3 6C3 5.44772 3.44772 5 4 5C4.55228 5 5 5.44772 5 6ZM5 18C5 18.5523 4.55228 19 4 19C3.44772 19 3 18.5523 3 18C3 17.4477 3.44772 17 4 17C4.55228 17 5 17.4477 5 18Z' />
  </symbol>
  <symbol id='list-numbered'>
    <path
      d="M11.4706 17.9655H21M3 14C3 14 3.5 13.5 3.99568 13.3412C4.49135 13.1823 5.39996 13.0689 6.00464 13.6597C6.60933 14.2505 6.79238 15.2948 6.00464 16.0644C5.21691 16.8341 3 19 3 19H7.23529M3.52941 4H5.11765V9.17241M5.11765 9.17241H7.23529M5.11765 9.17241H3M11.4706 5.55172H21M11.4706 11.7586H21" />
  </symbol>
  <symbol id='strikethrough-01'>
    <path
      d='M6 16C6 18.2091 7.79086 20 10 20H14C16.2091 20 18 18.2091 18 16C18 13.7909 16.2091 12 14 12M18 8C18 5.79086 16.2091 4 14 4H10C7.79086 4 6 5.79086 6 8M3 12H21' />
  </symbol>
  <symbol id='arrow-block-down'>
    <path
      d='M9 3.8C9 3.51997 9 3.37996 9.0545 3.273C9.10243 3.17892 9.17892 3.10243 9.273 3.0545C9.37996 3 9.51997 3 9.8 3H14.2C14.48 3 14.62 3 14.727 3.0545C14.8211 3.10243 14.8976 3.17892 14.9455 3.273C15 3.37996 15 3.51997 15 3.8V14H19L12 21L5 14H9V3.8Z' />
  </symbol>
  <symbol id='arrow-block-up'>
    <path
      d='M9.8 21C9.51997 21 9.37996 21 9.273 20.9455C9.17892 20.8976 9.10243 20.8211 9.0545 20.727C9 20.62 9 20.48 9 20.2V10H5L12 3L19 10H15V20.2C15 20.48 15 20.62 14.9455 20.727C14.8976 20.8211 14.8211 20.8976 14.727 20.9455C14.62 21 14.48 21 14.2 21H9.8Z'
      stroke='currentColor' stroke-width='2' stroke-linecap='round' stroke-linejoin='round' />
  </symbol>
  <symbol id='expand-01'>
    <path d='M14 10L21 3M21 3H15M21 3V9M10 14L3 21M3 21H9M3 21L3 15' />
  </symbol>
  <symbol id='collapse-01'>
    <path d="M3 21L10 14M10 14L4 14M10 14L10 20M21 3L14 10M14 10L20 10M14 10L14 4" />
  </symbol>
  <symbol id='building-06'>
    <path
      d='M11 11H6.2C5.07989 11 4.51984 11 4.09202 11.218C3.71569 11.4097 3.40973 11.7157 3.21799 12.092C3 12.5198 3 13.0799 3 14.2V21M21 21V6.2C21 5.0799 21 4.51984 20.782 4.09202C20.5903 3.71569 20.2843 3.40973 19.908 3.21799C19.4802 3 18.9201 3 17.8 3H14.2C13.0799 3 12.5198 3 12.092 3.21799C11.7157 3.40973 11.4097 3.71569 11.218 4.09202C11 4.51984 11 5.0799 11 6.2V21M22 21H2M14.5 7H17.5M14.5 11H17.5M14.5 15H17.5' />
  </symbol>
  <symbol id='magnet'>
    <path
      d="M20.435 16.5C20.5161 16.1932 20.5899 15.8823 20.6533 15.5714C20.9089 14.3174 21 12.9009 21 11.5238C21 6.28571 17.4 2 12 2C6.6 2 3 6.28571 3 11.5238C3 12.9009 3.09111 14.3174 3.34673 15.5714C3.4101 15.8823 3.48392 16.1932 3.56497 16.5M20.435 16.5C19.8085 18.8719 18.75 21 18.75 21L13.8 21C14.2102 19.5567 14.7789 18.0388 15.2419 16.5M20.435 16.5L15.2419 16.5M15.2419 16.5C15.697 14.9873 16.05 13.4545 16.05 11.9524C16.05 8.78571 13.8 7.42857 12 7.42857C10.2 7.42857 7.95 8.78571 7.95 11.9524C7.95 13.424 8.27525 14.9742 8.71503 16.5M8.71503 16.5C9.16536 18.0625 9.73579 19.5994 10.2 21L5.25 21C5.25 21 4.19153 18.8719 3.56497 16.5M8.71503 16.5L3.56497 16.5" />
  </symbol>
  <symbol id='radar'>
    <path
      d='M22 12c0 5.523-4.477 10-10 10a9.954 9.954 0 0 1-5.251-1.488M18 12A6 6 0 1 1 6.749 9.095m6.574 1.405a2 2 0 1 0-2.646 3 2 2 0 0 0 2.646-3Zm0 0 2.119-3.415m0 0A5.972 5.972 0 0 0 12 6a5.972 5.972 0 0 0-3.001.803m6.443.282 2.127-3.392A9.954 9.954 0 0 0 12 2C6.477 2 2 6.477 2 12c0 2.394.841 4.592 2.244 6.313' />
  </symbol>
  <symbol id='briefcase-02'>
    <path
      d='M8 21V7C8 6.07003 8 5.60504 8.10222 5.22354C8.37962 4.18827 9.18827 3.37962 10.2235 3.10222C10.605 3 11.07 3 12 3C12.93 3 13.395 3 13.7765 3.10222C14.8117 3.37962 15.6204 4.18827 15.8978 5.22354C16 5.60504 16 6.07003 16 7V21M5.2 21H18.8C19.9201 21 20.4802 21 20.908 20.782C21.2843 20.5903 21.5903 20.2843 21.782 19.908C22 19.4802 22 18.9201 22 17.8V10.2C22 9.07989 22 8.51984 21.782 8.09202C21.5903 7.71569 21.2843 7.40973 20.908 7.21799C20.4802 7 19.9201 7 18.8 7H5.2C4.07989 7 3.51984 7 3.09202 7.21799C2.71569 7.40973 2.40973 7.71569 2.21799 8.09202C2 8.51984 2 9.07989 2 10.2V17.8C2 18.9201 2 19.4802 2.21799 19.908C2.40973 20.2843 2.71569 20.5903 3.09202 20.782C3.51984 21 4.0799 21 5.2 21Z' />
  </symbol>
  <symbol id='flame'>
    <path
      d="M8.75682 9.60978C10.9627 7.38462 10.4604 4.46154 9.95806 3C14.8466 4.6698 14.479 10.2386 14.479 11.7692C15.1979 11.6301 16.9523 10.3055 17.815 9.60978C19.6842 12.8102 19.5404 18.6545 15.9459 20.8809C12.3513 23.1073 8.29353 21.5767 6.88767 20.046C2.28669 15.0366 7.36861 11.0101 8.75682 9.60978Z" />
  </symbol>
  <symbol id='clock-fast-forward'>
    <path
      d='M22.7 11.5L20.7005 13.5L18.7 11.5M20.9451 13C20.9814 12.6717 21 12.338 21 12C21 7.02944 16.9706 3 12 3C7.02944 3 3 7.02944 3 12C3 16.9706 7.02944 21 12 21C14.8273 21 17.35 19.6963 19 17.6573M12 7V12L15 14' />
  </symbol>
  <symbol id='user-plus-01'>
    <path
      d='M12 15.5H7.5C6.10444 15.5 5.40665 15.5 4.83886 15.6722C3.56045 16.06 2.56004 17.0605 2.17224 18.3389C2 18.9067 2 19.6044 2 21M19 21V15M16 18H22M14.5 7.5C14.5 9.98528 12.4853 12 10 12C7.51472 12 5.5 9.98528 5.5 7.5C5.5 5.01472 7.51472 3 10 3C12.4853 3 14.5 5.01472 14.5 7.5Z' />
  </symbol>
  <symbol id='check-circle'>
    <path
      d="M7.5 12L10.5 15L16.5 9M22 12C22 17.5228 17.5228 22 12 22C6.47715 22 2 17.5228 2 12C2 6.47715 6.47715 2 12 2C17.5228 2 22 6.47715 22 12Z" />
  </symbol>
  <symbol id='building-03'>
    <path
      d="M7.5 7H10.25M7.5 11H10.25M7.5 15H10.25M13.75 7H16.5M13.75 11H16.5M13.75 15H16.5M20 21V6.2C20 5.0799 20 4.51984 19.782 4.09202C19.5903 3.71569 19.2843 3.40973 18.908 3.21799C18.4802 3 17.9201 3 16.8 3H7.2C6.07989 3 5.51984 3 5.09202 3.21799C4.71569 3.40973 4.40973 3.71569 4.21799 4.09202C4 4.51984 4 5.0799 4 6.2V21M22 21H2" />
  </symbol>
  <symbol id='search-sm'>
    <path
      d='M21 21L15.0001 15M17 10C17 13.866 13.866 17 10 17C6.13401 17 3 13.866 3 10C3 6.13401 6.13401 3 10 3C13.866 3 17 6.13401 17 10Z' />
  </symbol>
  <symbol id='check'>
    <path d="M20 6L9 17L4 12" />
  </symbol>
  <symbol id='distribute-spacing-vertical'>
    <path
      d="M21 3H3M21 21H3M5 12C5 11.0681 5 10.6022 5.15224 10.2346C5.35523 9.74458 5.74458 9.35523 6.23463 9.15224C6.60218 9 7.06812 9 8 9L16 9C16.9319 9 17.3978 9 17.7654 9.15224C18.2554 9.35523 18.6448 9.74458 18.8478 10.2346C19 10.6022 19 11.0681 19 12C19 12.9319 19 13.3978 18.8478 13.7654C18.6448 14.2554 18.2554 14.6448 17.7654 14.8478C17.3978 15 16.9319 15 16 15L8 15C7.06812 15 6.60218 15 6.23463 14.8478C5.74458 14.6448 5.35523 14.2554 5.15224 13.7654C5 13.3978 5 12.9319 5 12Z" />
  </symbol>
  <symbol id="rows-01">
    <path
      d="M17.8 10C18.9201 10 19.4802 10 19.908 9.78201C20.2843 9.59027 20.5903 9.28431 20.782 8.90798C21 8.48016 21 7.92011 21 6.8V6.2C21 5.0799 21 4.51984 20.782 4.09202C20.5903 3.7157 20.2843 3.40973 19.908 3.21799C19.4802 3 18.9201 3 17.8 3L6.2 3C5.0799 3 4.51984 3 4.09202 3.21799C3.71569 3.40973 3.40973 3.71569 3.21799 4.09202C3 4.51984 3 5.07989 3 6.2L3 6.8C3 7.9201 3 8.48016 3.21799 8.90798C3.40973 9.28431 3.71569 9.59027 4.09202 9.78201C4.51984 10 5.07989 10 6.2 10L17.8 10Z" />
    <path
      d="M17.8 21C18.9201 21 19.4802 21 19.908 20.782C20.2843 20.5903 20.5903 20.2843 20.782 19.908C21 19.4802 21 18.9201 21 17.8V17.2C21 16.0799 21 15.5198 20.782 15.092C20.5903 14.7157 20.2843 14.4097 19.908 14.218C19.4802 14 18.9201 14 17.8 14L6.2 14C5.0799 14 4.51984 14 4.09202 14.218C3.71569 14.4097 3.40973 14.7157 3.21799 15.092C3 15.5198 3 16.0799 3 17.2L3 17.8C3 18.9201 3 19.4802 3.21799 19.908C3.40973 20.2843 3.71569 20.5903 4.09202 20.782C4.51984 21 5.07989 21 6.2 21H17.8Z" />
  </symbol>
  <symbol id="recording-01">
    <path d="M3 10L3 14M7.5 11V13M12 6V18M16.5 3V21M21 10V14" />
  </symbol>
  <symbol id="arrow-switch-vertical-01">
    <path d="M17 4V20M17 20L13 16M17 20L21 16M7 20V4M7 4L3 8M7 4L11 8" />
  </symbol>
  <symbol id="arrows-down">
    <path d="M17 4V15M17 15L13 11M17 15L21 11M7 4V20M7 20L3 16M7 20L11 16" />
  </symbol>

  <symbol id="arrows-up">
    <path d="M7 20V4M7 4L3 8M7 4L11 8M17 20V9M17 9L13 13M17 9L21 13" />
  </symbol>
  <symbol id="layers-three-01">
    <path
      d="M2 12.0001L11.6422 16.8212C11.7734 16.8868 11.839 16.9196 11.9078 16.9325C11.9687 16.9439 12.0313 16.9439 12.0922 16.9325C12.161 16.9196 12.2266 16.8868 12.3578 16.8212L22 12.0001M2 17.0001L11.6422 21.8212C11.7734 21.8868 11.839 21.9196 11.9078 21.9325C11.9687 21.9439 12.0313 21.9439 12.0922 21.9325C12.161 21.9196 12.2266 21.8868 12.3578 21.8212L22 17.0001M2 7.00006L11.6422 2.17895C11.7734 2.11336 11.839 2.08056 11.9078 2.06766C11.9687 2.05622 12.0313 2.05622 12.0922 2.06766C12.161 2.08056 12.2266 2.11336 12.3578 2.17895L22 7.00006L12.3578 11.8212C12.2266 11.8868 12.161 11.9196 12.0922 11.9325C12.0313 11.9439 11.9687 11.9439 11.9078 11.9325C11.839 11.9196 11.7734 11.8868 11.6422 11.8212L2 7.00006Z" />
  </symbol>
</svg>