<svg width="172" height="22" viewBox="0 0 172 22" fill="none" xmlns="http://www.w3.org/2000/svg">
<path d="M10.842 21.3238C9.31469 21.3238 7.90336 21.0724 6.60803 20.5698C5.31269 20.0478 4.19136 19.3228 3.24403 18.3948C2.29669 17.4668 1.55236 16.3744 1.01103 15.1178C0.489027 13.8611 0.228027 12.4884 0.228027 10.9998C0.228027 9.51112 0.489027 8.13845 1.01103 6.88178C1.55236 5.62511 2.29669 4.53278 3.24403 3.60478C4.21069 2.67678 5.34169 1.96145 6.63703 1.45878C7.93236 0.936781 9.34369 0.675781 10.871 0.675781C12.3404 0.675781 13.7227 0.927115 15.018 1.42978C16.3134 1.91311 17.4057 2.64778 18.295 3.63378L16.932 4.99678C16.1007 4.14611 15.1824 3.53712 14.177 3.16978C13.1717 2.78311 12.089 2.58978 10.929 2.58978C9.71103 2.58978 8.58003 2.80245 7.53603 3.22778C6.49203 3.63378 5.58336 4.22345 4.81003 4.99678C4.03669 5.75078 3.42769 6.64011 2.98303 7.66478C2.55769 8.67011 2.34503 9.78178 2.34503 10.9998C2.34503 12.2178 2.55769 13.3391 2.98303 14.3638C3.42769 15.3691 4.03669 16.2584 4.81003 17.0318C5.58336 17.7858 6.49203 18.3754 7.53603 18.8008C8.58003 19.2068 9.71103 19.4098 10.929 19.4098C12.089 19.4098 13.1717 19.2164 14.177 18.8298C15.1824 18.4431 16.1007 17.8244 16.932 16.9738L18.295 18.3368C17.4057 19.3228 16.3134 20.0671 15.018 20.5698C13.7227 21.0724 12.3307 21.3238 10.842 21.3238Z" fill="#251F37"/>
<path d="M27.058 21.2948C25.7627 21.2948 24.6317 21.0531 23.665 20.5698C22.6983 20.0864 21.9443 19.3614 21.403 18.3948C20.881 17.4281 20.62 16.2198 20.62 14.7698V5.92478H22.679V14.5378C22.679 16.1618 23.0753 17.3894 23.868 18.2208C24.68 19.0328 25.811 19.4388 27.261 19.4388C28.3243 19.4388 29.2427 19.2261 30.016 18.8008C30.8087 18.3561 31.408 17.7181 31.814 16.8868C32.2393 16.0554 32.452 15.0598 32.452 13.8998V5.92478H34.511V21.1498H32.539V16.9738L32.858 17.7278C32.3747 18.8491 31.6207 19.7288 30.596 20.3668C29.5907 20.9854 28.4113 21.2948 27.058 21.2948Z" fill="#251F37"/>
<path d="M43.1784 21.2948C41.9217 21.2948 40.7327 21.1208 39.6114 20.7728C38.4901 20.4054 37.6104 19.9511 36.9724 19.4098L37.9004 17.7858C38.5191 18.2498 39.3117 18.6558 40.2784 19.0038C41.2451 19.3324 42.2601 19.4968 43.3234 19.4968C44.7734 19.4968 45.8174 19.2744 46.4554 18.8298C47.0934 18.3658 47.4124 17.7568 47.4124 17.0028C47.4124 16.4421 47.2287 16.0071 46.8614 15.6978C46.5134 15.3691 46.0494 15.1274 45.4694 14.9728C44.8894 14.7988 44.2417 14.6538 43.5264 14.5378C42.8111 14.4218 42.0957 14.2864 41.3804 14.1318C40.6844 13.9771 40.0464 13.7548 39.4664 13.4648C38.8864 13.1554 38.4127 12.7398 38.0454 12.2178C37.6974 11.6958 37.5234 10.9998 37.5234 10.1298C37.5234 9.29845 37.7554 8.55411 38.2194 7.89678C38.6834 7.23945 39.3601 6.72711 40.2494 6.35978C41.1581 5.97311 42.2601 5.77978 43.5554 5.77978C44.5414 5.77978 45.5274 5.91511 46.5134 6.18578C47.4994 6.43711 48.3114 6.77545 48.9494 7.20078L48.0504 8.85378C47.3737 8.38978 46.6487 8.06111 45.8754 7.86778C45.1021 7.65512 44.3287 7.54878 43.5554 7.54878C42.1827 7.54878 41.1677 7.79045 40.5104 8.27378C39.8724 8.73778 39.5534 9.33711 39.5534 10.0718C39.5534 10.6518 39.7274 11.1061 40.0754 11.4348C40.4427 11.7634 40.9164 12.0244 41.4964 12.2178C42.0957 12.3918 42.7434 12.5368 43.4394 12.6528C44.1547 12.7688 44.8604 12.9138 45.5564 13.0878C46.2717 13.2424 46.9194 13.4648 47.4994 13.7548C48.0987 14.0254 48.5724 14.4218 48.9204 14.9438C49.2877 15.4464 49.4714 16.1134 49.4714 16.9448C49.4714 17.8341 49.2201 18.6074 48.7174 19.2648C48.2341 19.9028 47.5187 20.4054 46.5714 20.7728C45.6434 21.1208 44.5124 21.2948 43.1784 21.2948Z" fill="#251F37"/>
<path d="M56.9035 21.2948C55.4729 21.2948 54.3709 20.9081 53.5975 20.1348C52.8242 19.3615 52.4375 18.2691 52.4375 16.8578V2.56078H54.4965V16.7418C54.4965 17.6311 54.7189 18.3174 55.1635 18.8008C55.6275 19.2841 56.2849 19.5258 57.1355 19.5258C58.0442 19.5258 58.7982 19.2648 59.3975 18.7428L60.1225 20.2218C59.7165 20.5891 59.2235 20.8598 58.6435 21.0338C58.0829 21.2078 57.5029 21.2948 56.9035 21.2948ZM49.7115 7.63578V5.92478H59.1365V7.63578H49.7115Z" fill="#251F37"/>
<path d="M68.3787 21.2948C66.9094 21.2948 65.585 20.9661 64.4057 20.3088C63.2457 19.6321 62.3274 18.7138 61.6507 17.5538C60.974 16.3744 60.6357 15.0308 60.6357 13.5228C60.6357 11.9954 60.974 10.6518 61.6507 9.49178C62.3274 8.33178 63.2457 7.42311 64.4057 6.76578C65.5657 6.10845 66.89 5.77978 68.3787 5.77978C69.8867 5.77978 71.2207 6.10845 72.3807 6.76578C73.56 7.42311 74.4784 8.33178 75.1357 9.49178C75.8124 10.6518 76.1507 11.9954 76.1507 13.5228C76.1507 15.0308 75.8124 16.3744 75.1357 17.5538C74.4784 18.7138 73.56 19.6321 72.3807 20.3088C71.2014 20.9661 69.8674 21.2948 68.3787 21.2948ZM68.3787 19.4678C69.4807 19.4678 70.457 19.2261 71.3077 18.7428C72.1584 18.2401 72.8254 17.5441 73.3087 16.6548C73.8114 15.7461 74.0627 14.7021 74.0627 13.5228C74.0627 12.3241 73.8114 11.2801 73.3087 10.3908C72.8254 9.50145 72.1584 8.81511 71.3077 8.33178C70.457 7.82911 69.4904 7.57778 68.4077 7.57778C67.325 7.57778 66.3584 7.82911 65.5077 8.33178C64.657 8.81511 63.9804 9.50145 63.4777 10.3908C62.975 11.2801 62.7237 12.3241 62.7237 13.5228C62.7237 14.7021 62.975 15.7461 63.4777 16.6548C63.9804 17.5441 64.657 18.2401 65.5077 18.7428C66.3584 19.2261 67.3154 19.4678 68.3787 19.4678Z" fill="#251F37"/>
<path d="M98.2183 5.77978C99.4557 5.77978 100.529 6.02145 101.437 6.50478C102.365 6.96878 103.081 7.68411 103.583 8.65078C104.105 9.61745 104.366 10.8354 104.366 12.3048V21.1498H102.307V12.5078C102.307 10.9031 101.921 9.69478 101.147 8.88278C100.393 8.05145 99.3203 7.63578 97.9283 7.63578C96.8843 7.63578 95.9757 7.85811 95.2023 8.30278C94.4483 8.72812 93.8587 9.35645 93.4333 10.1878C93.0273 10.9998 92.8243 11.9858 92.8243 13.1458V21.1498H90.7653V12.5078C90.7653 10.9031 90.3787 9.69478 89.6053 8.88278C88.832 8.05145 87.7493 7.63578 86.3573 7.63578C85.3327 7.63578 84.4337 7.85811 83.6603 8.30278C82.887 8.72812 82.2877 9.35645 81.8623 10.1878C81.4563 10.9998 81.2533 11.9858 81.2533 13.1458V21.1498H79.1943V5.92478H81.1663V10.0428L80.8473 9.31778C81.3113 8.21578 82.0557 7.35545 83.0803 6.73678C84.1243 6.09878 85.352 5.77978 86.7633 5.77978C88.252 5.77978 89.5183 6.15678 90.5623 6.91078C91.6063 7.64545 92.283 8.75712 92.5923 10.2458L91.7803 9.92678C92.225 8.68945 93.008 7.69378 94.1293 6.93978C95.27 6.16645 96.633 5.77978 98.2183 5.77978Z" fill="#251F37"/>
<path d="M115.257 21.2948C113.672 21.2948 112.28 20.9661 111.081 20.3088C109.883 19.6321 108.945 18.7138 108.268 17.5538C107.592 16.3744 107.253 15.0308 107.253 13.5228C107.253 12.0148 107.572 10.6808 108.21 9.52078C108.868 8.36078 109.757 7.45211 110.878 6.79478C112.019 6.11811 113.295 5.77978 114.706 5.77978C116.137 5.77978 117.403 6.10845 118.505 6.76578C119.627 7.40378 120.506 8.31245 121.144 9.49178C121.782 10.6518 122.101 11.9954 122.101 13.5228C122.101 13.6194 122.092 13.7258 122.072 13.8418C122.072 13.9384 122.072 14.0448 122.072 14.1608H108.819V12.6238H120.97L120.158 13.2328C120.158 12.1308 119.917 11.1544 119.433 10.3038C118.969 9.43378 118.331 8.75711 117.519 8.27378C116.707 7.79045 115.77 7.54878 114.706 7.54878C113.662 7.54878 112.725 7.79045 111.893 8.27378C111.062 8.75711 110.414 9.43378 109.95 10.3038C109.486 11.1738 109.254 12.1694 109.254 13.2908V13.6098C109.254 14.7698 109.506 15.7944 110.008 16.6838C110.53 17.5538 111.246 18.2401 112.154 18.7428C113.082 19.2261 114.136 19.4678 115.315 19.4678C116.243 19.4678 117.104 19.3034 117.896 18.9748C118.708 18.6461 119.404 18.1434 119.984 17.4668L121.144 18.8008C120.468 19.6128 119.617 20.2314 118.592 20.6568C117.587 21.0821 116.475 21.2948 115.257 21.2948Z" fill="#251F37"/>
<path d="M125.132 21.1498V5.92478H127.104V10.0718L126.901 9.34678C127.326 8.18678 128.042 7.30712 129.047 6.70778C130.053 6.08911 131.299 5.77978 132.788 5.77978V7.78078C132.711 7.78078 132.633 7.78078 132.556 7.78078C132.479 7.76145 132.401 7.75178 132.324 7.75178C130.719 7.75178 129.463 8.24478 128.554 9.23078C127.645 10.1974 127.191 11.5798 127.191 13.3778V21.1498H125.132Z" fill="#251F37"/>
<path d="M144.863 21.2658C143.374 21.2658 141.992 21.0144 140.716 20.5118C139.44 19.9898 138.328 19.2648 137.381 18.3368C136.433 17.4088 135.699 16.3261 135.177 15.0888C134.655 13.8321 134.394 12.4691 134.394 10.9998C134.394 9.53045 134.655 8.17711 135.177 6.93978C135.699 5.68312 136.433 4.59078 137.381 3.66278C138.328 2.73478 139.44 2.01945 140.716 1.51678C141.992 0.994781 143.374 0.733781 144.863 0.733781C146.371 0.733781 147.763 0.994781 149.039 1.51678C150.315 2.01945 151.417 2.73478 152.345 3.66278C153.292 4.59078 154.027 5.68312 154.549 6.93978C155.09 8.17711 155.361 9.53045 155.361 10.9998C155.361 12.4691 155.09 13.8321 154.549 15.0888C154.027 16.3261 153.292 17.4088 152.345 18.3368C151.417 19.2648 150.315 19.9898 149.039 20.5118C147.763 21.0144 146.371 21.2658 144.863 21.2658ZM144.863 20.3668C146.216 20.3668 147.473 20.1348 148.633 19.6708C149.793 19.2068 150.798 18.5494 151.649 17.6988C152.519 16.8481 153.186 15.8621 153.65 14.7408C154.133 13.6001 154.375 12.3531 154.375 10.9998C154.375 9.64645 154.133 8.40911 153.65 7.28778C153.186 6.14712 152.519 5.15145 151.649 4.30078C150.798 3.45012 149.793 2.79278 148.633 2.32878C147.473 1.86478 146.216 1.63278 144.863 1.63278C143.529 1.63278 142.282 1.86478 141.122 2.32878C139.962 2.79278 138.947 3.45012 138.077 4.30078C137.226 5.15145 136.559 6.14712 136.076 7.28778C135.612 8.40911 135.38 9.64645 135.38 10.9998C135.38 12.3531 135.612 13.6001 136.076 14.7408C136.559 15.8621 137.226 16.8481 138.077 17.6988C138.947 18.5494 139.962 19.2068 141.122 19.6708C142.282 20.1348 143.529 20.3668 144.863 20.3668Z" fill="#251F37"/>
<path d="M164.696 21.2658C163.208 21.2658 161.796 21.0048 160.462 20.4828C159.148 19.9414 158.142 19.2648 157.446 18.4528L157.968 17.7568C158.626 18.4914 159.554 19.1198 160.752 19.6418C161.97 20.1444 163.275 20.3958 164.667 20.3958C166.079 20.3958 167.239 20.2024 168.147 19.8158C169.056 19.4291 169.723 18.9168 170.148 18.2788C170.593 17.6214 170.815 16.8964 170.815 16.1038C170.815 15.1758 170.583 14.4314 170.119 13.8708C169.655 13.3101 169.037 12.8654 168.263 12.5368C167.509 12.2081 166.678 11.9374 165.769 11.7248C164.88 11.5121 163.971 11.2898 163.043 11.0578C162.135 10.8064 161.294 10.4971 160.52 10.1298C159.766 9.74312 159.157 9.22112 158.693 8.56378C158.249 7.88712 158.026 7.01711 158.026 5.95378C158.026 5.04511 158.268 4.19445 158.751 3.40178C159.235 2.60911 159.989 1.97111 161.013 1.48778C162.038 0.985114 163.353 0.733781 164.957 0.733781C166.059 0.733781 167.142 0.907781 168.205 1.25578C169.288 1.58445 170.206 2.02911 170.96 2.58978L170.525 3.37278C169.713 2.77345 168.814 2.32878 167.828 2.03878C166.842 1.74878 165.895 1.60378 164.986 1.60378C163.633 1.60378 162.502 1.80678 161.593 2.21278C160.704 2.59945 160.047 3.12145 159.621 3.77878C159.196 4.43612 158.983 5.16112 158.983 5.95378C158.983 6.90111 159.215 7.65511 159.679 8.21578C160.143 8.77645 160.752 9.22112 161.506 9.54978C162.28 9.87845 163.121 10.1491 164.029 10.3618C164.938 10.5744 165.847 10.8064 166.755 11.0578C167.664 11.2898 168.495 11.5991 169.249 11.9858C170.023 12.3724 170.632 12.8944 171.076 13.5518C171.54 14.1898 171.772 15.0308 171.772 16.0748C171.772 16.9834 171.521 17.8341 171.018 18.6268C170.535 19.4194 169.762 20.0574 168.698 20.5408C167.654 21.0241 166.32 21.2658 164.696 21.2658Z" fill="#251F37"/>
</svg>
