<svg width="152" height="120" viewBox="0 0 152 120" fill="none" xmlns="http://www.w3.org/2000/svg">
<circle cx="76" cy="52" r="52" fill="#E9D7FE"/>
<g filter="url(#filter0_dd_8771_5841)">
<path d="M77.5996 16C90.7795 16 102.096 23.9689 107 35.3506C107.853 35.252 108.72 35.2002 109.6 35.2002C121.971 35.2002 132 45.2286 132 57.5996C132 69.7776 122.282 79.6857 110.178 79.9922L109.6 80H45.5996L44.9395 79.9912C31.1064 79.6408 20.0002 68.3179 20 54.4004C20 40.262 31.4613 28.8 45.5996 28.7998C47.6295 28.7998 49.6045 29.0369 51.498 29.4834C57.2971 21.3235 66.8267 16.0001 77.5996 16Z" fill="#F9F5FF"/>
<ellipse cx="45.6" cy="54.4" rx="25.6" ry="25.6" fill="url(#paint0_linear_8771_5841)"/>
<circle cx="77.6001" cy="48" r="32" fill="url(#paint1_linear_8771_5841)"/>
<ellipse cx="109.6" cy="57.5999" rx="22.4" ry="22.4" fill="url(#paint2_linear_8771_5841)"/>
</g>
<circle cx="21" cy="19" r="5" fill="#F4EBFF"/>
<circle cx="18" cy="109" r="7" fill="#F4EBFF"/>
<circle cx="145" cy="35" r="7" fill="#F4EBFF"/>
<circle cx="134" cy="8" r="4" fill="#F4EBFF"/>
<rect x="52" y="62" width="48" height="48" rx="24" fill="#6941C6" fill-opacity="0.4"/>
<path d="M85 95L81.5001 91.5M84 85.5C84 90.1944 80.1944 94 75.5 94C70.8056 94 67 90.1944 67 85.5C67 80.8056 70.8056 77 75.5 77C80.1944 77 84 80.8056 84 85.5Z" stroke="white" stroke-width="2" stroke-linecap="round" stroke-linejoin="round"/>
<defs>
<filter id="filter0_dd_8771_5841" x="0" y="16" width="152" height="104" filterUnits="userSpaceOnUse" color-interpolation-filters="sRGB">
<feFlood flood-opacity="0" result="BackgroundImageFix"/>
<feColorMatrix in="SourceAlpha" type="matrix" values="0 0 0 0 0 0 0 0 0 0 0 0 0 0 0 0 0 0 127 0" result="hardAlpha"/>
<feMorphology radius="4" operator="erode" in="SourceAlpha" result="effect1_dropShadow_8771_5841"/>
<feOffset dy="8"/>
<feGaussianBlur stdDeviation="4"/>
<feColorMatrix type="matrix" values="0 0 0 0 0.0627451 0 0 0 0 0.0941176 0 0 0 0 0.156863 0 0 0 0.03 0"/>
<feBlend mode="normal" in2="BackgroundImageFix" result="effect1_dropShadow_8771_5841"/>
<feColorMatrix in="SourceAlpha" type="matrix" values="0 0 0 0 0 0 0 0 0 0 0 0 0 0 0 0 0 0 127 0" result="hardAlpha"/>
<feMorphology radius="4" operator="erode" in="SourceAlpha" result="effect2_dropShadow_8771_5841"/>
<feOffset dy="20"/>
<feGaussianBlur stdDeviation="12"/>
<feColorMatrix type="matrix" values="0 0 0 0 0.0627451 0 0 0 0 0.0941176 0 0 0 0 0.156863 0 0 0 0.08 0"/>
<feBlend mode="normal" in2="effect1_dropShadow_8771_5841" result="effect2_dropShadow_8771_5841"/>
<feBlend mode="normal" in="SourceGraphic" in2="effect2_dropShadow_8771_5841" result="shape"/>
</filter>
<linearGradient id="paint0_linear_8771_5841" x1="25.9429" y1="37.4858" x2="71.2" y2="80" gradientUnits="userSpaceOnUse">
<stop stop-color="#E9D7FE"/>
<stop offset="0.350715" stop-color="white" stop-opacity="0"/>
</linearGradient>
<linearGradient id="paint1_linear_8771_5841" x1="53.0287" y1="26.8571" x2="109.6" y2="80" gradientUnits="userSpaceOnUse">
<stop stop-color="#E9D7FE"/>
<stop offset="0.350715" stop-color="white" stop-opacity="0"/>
</linearGradient>
<linearGradient id="paint2_linear_8771_5841" x1="92.4002" y1="42.8" x2="132" y2="79.9999" gradientUnits="userSpaceOnUse">
<stop stop-color="#E9D7FE"/>
<stop offset="0.350715" stop-color="white" stop-opacity="0"/>
</linearGradient>
</defs>
</svg>
